<mxfile>
    <diagram id="t0Nu0td6LH2ubod-Dl0u" name="Page-1">
        <mxGraphModel dx="1279" dy="613" grid="1" gridSize="10" guides="1" tooltips="1" connect="1" arrows="1" fold="1" page="1" pageScale="1" pageWidth="850" pageHeight="1100" math="0" shadow="0">
            <root>
                <mxCell id="0"/>
                <mxCell id="1" parent="0"/>
                <mxCell id="2" value="Product" style="shape=table;startSize=50;container=1;collapsible=1;childLayout=tableLayout;fixedRows=1;rowLines=0;fontStyle=1;align=center;resizeLast=1;fillColor=#F2CC8F;strokeColor=#E07A5F;fontColor=#393C56;fontSize=20;" vertex="1" parent="1">
                    <mxGeometry x="410" y="440" width="340" height="290" as="geometry"/>
                </mxCell>
                <mxCell id="3" value="" style="shape=partialRectangle;collapsible=0;dropTarget=0;pointerEvents=0;fillColor=none;points=[[0,0.5],[1,0.5]];portConstraint=eastwest;top=0;left=0;right=0;bottom=0;strokeColor=#E07A5F;fontColor=#393C56;" vertex="1" parent="2">
                    <mxGeometry y="50" width="340" height="30" as="geometry"/>
                </mxCell>
                <mxCell id="4" value="" style="shape=partialRectangle;overflow=hidden;connectable=0;fillColor=none;top=0;left=0;bottom=0;right=0;strokeColor=#E07A5F;fontColor=#393C56;" vertex="1" parent="3">
                    <mxGeometry width="30" height="30" as="geometry"/>
                </mxCell>
                <mxCell id="5" value="" style="shape=partialRectangle;overflow=hidden;connectable=0;fillColor=none;top=0;left=0;bottom=0;right=0;align=left;spacingLeft=6;strokeColor=#E07A5F;fontColor=#393C56;fontSize=20;labelBackgroundColor=#ffffff;" vertex="1" parent="3">
                    <mxGeometry x="30" width="310" height="30" as="geometry"/>
                </mxCell>
                <mxCell id="6" value="Users" style="shape=table;startSize=30;container=1;collapsible=1;childLayout=tableLayout;fixedRows=1;rowLines=0;fontStyle=1;align=center;resizeLast=1;fillColor=#F2CC8F;strokeColor=#E07A5F;fontColor=#393C56;fontSize=20;" vertex="1" parent="1">
                    <mxGeometry x="40" y="120" width="290" height="230" as="geometry"/>
                </mxCell>
                <mxCell id="7" value="" style="shape=partialRectangle;collapsible=0;dropTarget=0;pointerEvents=0;fillColor=none;points=[[0,0.5],[1,0.5]];portConstraint=eastwest;top=0;left=0;right=0;bottom=0;strokeColor=#E07A5F;fontColor=#393C56;" vertex="1" parent="6">
                    <mxGeometry y="30" width="290" height="30" as="geometry"/>
                </mxCell>
                <mxCell id="8" value="" style="shape=partialRectangle;overflow=hidden;connectable=0;fillColor=none;top=0;left=0;bottom=0;right=0;strokeColor=#E07A5F;fontColor=#393C56;" vertex="1" parent="7">
                    <mxGeometry width="30" height="30" as="geometry"/>
                </mxCell>
                <mxCell id="9" value="Email: &quot;String&quot;" style="shape=partialRectangle;overflow=hidden;connectable=0;fillColor=#e3c800;top=0;left=0;bottom=0;right=0;align=left;spacingLeft=6;strokeColor=#B09500;fontColor=#ffffff;fontSize=20;" vertex="1" parent="7">
                    <mxGeometry x="30" width="260" height="30" as="geometry"/>
                </mxCell>
                <mxCell id="10" value="Password: &quot;String&quot;" style="text;html=1;align=center;verticalAlign=middle;resizable=0;points=[];autosize=1;strokeColor=#B09500;fontSize=20;fontColor=#ffffff;fillColor=#e3c800;" vertex="1" parent="1">
                    <mxGeometry x="70" y="190" width="180" height="30" as="geometry"/>
                </mxCell>
                <mxCell id="11" value="Bag: [selected coffee array];" style="text;html=1;align=center;verticalAlign=middle;resizable=0;points=[];autosize=1;strokeColor=#B09500;fontSize=20;fontColor=#ffffff;fillColor=#e3c800;" vertex="1" parent="1">
                    <mxGeometry x="70" y="230" width="260" height="30" as="geometry"/>
                </mxCell>
                <mxCell id="12" value="Price: Value" style="text;html=1;align=center;verticalAlign=middle;resizable=0;points=[];autosize=1;strokeColor=#B09500;fontSize=20;fontColor=#ffffff;fillColor=#e3c800;" vertex="1" parent="1">
                    <mxGeometry x="440" y="570" width="120" height="30" as="geometry"/>
                </mxCell>
                <mxCell id="13" value="Description: String" style="text;html=1;align=center;verticalAlign=middle;resizable=0;points=[];autosize=1;strokeColor=#B09500;fontSize=20;fontColor=#ffffff;fillColor=#e3c800;" vertex="1" parent="1">
                    <mxGeometry x="440" y="600" width="180" height="30" as="geometry"/>
                </mxCell>
                <mxCell id="14" value="Img: String (url)" style="text;html=1;align=center;verticalAlign=middle;resizable=0;points=[];autosize=1;strokeColor=#B09500;fontSize=20;fontColor=#ffffff;fillColor=#e3c800;" vertex="1" parent="1">
                    <mxGeometry x="440" y="630" width="150" height="30" as="geometry"/>
                </mxCell>
                <mxCell id="15" value="" style="edgeStyle=entityRelationEdgeStyle;fontSize=12;html=1;endArrow=ERzeroToMany;endFill=1;fontColor=#393C56;strokeColor=#E07A5F;fillColor=#F2CC8F;exitX=0.5;exitY=1;exitDx=0;exitDy=0;entryX=0;entryY=0.5;entryDx=0;entryDy=0;" edge="1" parent="1" source="6" target="2">
                    <mxGeometry width="100" height="100" relative="1" as="geometry">
                        <mxPoint x="370" y="480" as="sourcePoint"/>
                        <mxPoint x="470" y="380" as="targetPoint"/>
                    </mxGeometry>
                </mxCell>
                <mxCell id="17" value="&lt;font style=&quot;font-size: 20px&quot;&gt;Name: String&lt;/font&gt;" style="text;html=1;align=center;verticalAlign=middle;resizable=0;points=[];autosize=1;fillColor=#e3c800;strokeColor=#B09500;fontColor=#ffffff;" vertex="1" parent="1">
                    <mxGeometry x="440" y="530" width="130" height="20" as="geometry"/>
                </mxCell>
            </root>
        </mxGraphModel>
    </diagram>
</mxfile>